<svg width="16" height="10" viewBox="0 0 16 10" fill="none" xmlns="http://www.w3.org/2000/svg">
<path d="M10 5C10 6.03375 9.10268 6.875 8.00001 6.875C6.89734 6.875 6.00001 6.03375 6.00001 5C6.00001 3.96625 6.89733 3 8 3C9.10267 3 10 3.96625 10 5ZM15.5 4.71937C15.5 4.71937 14 10 8.84467 10C2 10 0.5 4.71937 0.5 4.71937C0.5 4.71937 2.96401 0 8.01001 0C13.1393 0 15.5 4.71937 15.5 4.71937ZM11.3333 5C11.3333 3.27688 9.83801 1.875 8.00001 1.875C6.16201 1.875 4.66668 3.27688 4.66668 5C4.66668 6.72312 6.16201 8.125 8.00001 8.125C9.83801 8.125 11.3333 6.72312 11.3333 5Z" fill="#9FA2B4"/>
</svg>
