<svg width="18" height="14" viewBox="0 0 18 14" fill="none" xmlns="http://www.w3.org/2000/svg">
<path d="M8.99994 10.75C7.02468 10.75 5.42572 9.22114 5.27859 7.28364L2.54682 5.17244C2.1877 5.62296 1.85723 6.09927 1.59057 6.6201C1.53099 6.73794 1.49996 6.86813 1.49996 7.00018C1.49996 7.13222 1.53099 7.26242 1.59057 7.38026C3.00281 10.1357 5.79864 12 8.99994 12C9.70072 12 10.3768 11.8959 11.0283 11.7277L9.67702 10.6821C9.45385 10.7252 9.22723 10.7479 8.99994 10.75ZM17.1723 12.2631L14.2934 10.0381C15.168 9.30107 15.8872 8.39752 16.4093 7.38C16.4689 7.26215 16.4999 7.13196 16.4999 6.99992C16.4999 6.86787 16.4689 6.73768 16.4093 6.61984C14.9971 3.86437 12.2012 2.00005 8.99994 2.00005C7.65919 2.00167 6.34021 2.33921 5.16348 2.98182L1.85046 0.421142C1.80726 0.387524 1.75786 0.362749 1.70507 0.348232C1.65229 0.333715 1.59717 0.32974 1.54285 0.336536C1.48853 0.343332 1.43609 0.360765 1.38851 0.387838C1.34093 0.414911 1.29915 0.451094 1.26557 0.494319L0.754368 1.15239C0.686555 1.23963 0.656169 1.35023 0.669892 1.45986C0.683615 1.5695 0.740323 1.6692 0.827545 1.73703L16.1494 13.579C16.1926 13.6126 16.242 13.6373 16.2948 13.6519C16.3476 13.6664 16.4027 13.6704 16.457 13.6636C16.5113 13.6568 16.5638 13.6393 16.6114 13.6123C16.659 13.5852 16.7007 13.549 16.7343 13.5058L17.2458 12.8477C17.3136 12.7604 17.3439 12.6498 17.3301 12.5402C17.3164 12.4305 17.2596 12.3309 17.1723 12.2631ZM12.388 8.56515L11.3645 7.77401C11.4507 7.52491 11.4964 7.26361 11.4999 7.00005C11.505 6.61418 11.4195 6.2325 11.2503 5.88566C11.0812 5.53882 10.833 5.2365 10.5258 5.00297C10.2185 4.76944 9.86083 4.61122 9.48137 4.54102C9.1019 4.47082 8.71126 4.49059 8.34083 4.59875C8.49786 4.81153 8.58281 5.06892 8.58327 5.33338C8.57939 5.42138 8.56594 5.5087 8.54317 5.5938L6.62624 4.11229C7.29212 3.55583 8.13216 3.25069 8.99994 3.25005C9.49247 3.24977 9.98023 3.34658 10.4353 3.53494C10.8904 3.7233 11.3039 3.99951 11.6522 4.34779C12.0005 4.69606 12.2767 5.10957 12.465 5.56466C12.6534 6.01976 12.7502 6.50751 12.7499 7.00005C12.7499 7.56333 12.6122 8.08833 12.388 8.56541V8.56515Z" fill="#9FA2B4"/>
</svg>
